# xmcd
#
# Track frame offsets: 
#        150
#        22400
#        40782
#        62692
#        82717
#        101630
#        127177
#        145120
#        165285
#        190935
#
# Disc length: 2876 seconds
#
# Revision: 0
# Processed by: cddbd v1.5.2PL0 Copyright (c) Steve Scherf et al.
# Submitted via: ExactAudioCopy v1.0b3
#
DISCID=800b3a0a
DTITLE=Tuan Vu, Duy Khanh, Che Linh - Biet Kinh Ky
DYEAR=1989
DGENRE=
TTITLE0=Duy Khanh - Truong cu tinh xua
TTITLE1=Tuan Vu - Tinh doi tay trang
TTITLE2=Che Linh - Buon trong ky niem
TTITLE3=Duy Khanh - Biet kinh ky
TTITLE4=Tuan Vu - Han Mac Tu
TTITLE5=Che Linh - Vong gac dem suong
TTITLE6=Tuan Vu - Nhat nang
TTITLE7=Duy Khanh - Nho thanh do
TTITLE8=Che Linh - Thoi doi
TTITLE9=Tuan Vu - Quan nua khuya
EXTD=
EXTT0=
EXTT1=
EXTT2=
EXTT3=
EXTT4=
EXTT5=
EXTT6=
EXTT7=
EXTT8=
EXTT9=
PLAYORDER=
